<svg xmlns="http://www.w3.org/2000/svg" viewBox="0 0 24 24" id="reebok">
  <path d="M13.722 12.62a.5.5 0 0 1-.181-.966c1.896-.735 2.553-1.058 3.08-1.318.492-.243.853-.419 1.934-.792-3.021.383-5.668.821-7.509 1.253a.5.5 0 0 1-.229-.974c2.847-.668 7.57-1.35 12.637-1.821a.487.487 0 0 1 .536.401.5.5 0 0 1-.344.575c-5.291 1.619-5.724 1.832-6.584 2.255-.516.254-1.223.603-3.16 1.354a.516.516 0 0 1-.18.033zM5.129 16H1.328a.496.496 0 0 1-.438-.261.497.497 0 0 1 .019-.51c.629-.977 1.546-1.871 2.726-2.657 1.263-.843 3.038-1.928 4.326-2.308a.5.5 0 1 1 .283.959c-.911.269-2.351 1.043-4.055 2.181-.74.493-1.362 1.028-1.858 1.596H4.86c1.011-1.423 3.487-3.222 5.183-3.966a.501.501 0 0 1 .402.916c-1.59.697-4.125 2.551-4.889 3.81a.498.498 0 0 1-.427.24z"></path>
  <path d="M10.148 16h-5.02a.5.5 0 0 1 0-1h4.739c.566-.87 1.653-2.064 2.652-2.898a.5.5 0 0 1 .641.767c-1.004.839-2.137 2.103-2.578 2.878a.496.496 0 0 1-.434.253z"></path>
  <path d="M17.458 14.984a.508.508 0 0 1-.211-.046 88.16 88.16 0 0 0-9.304-3.719L.358 8.979A.5.5 0 0 1 .5 8h7.602a.5.5 0 0 1 .27.079l9.356 5.984a.5.5 0 0 1-.27.921zM3.96 9l4.283 1.265c1.3.434 2.587.897 3.874 1.397L7.955 9H3.96z"></path>
</svg>
